<?xml version="1.0" encoding="utf-8"?>
<!-- Generator: Adobe Illustrator 21.0.0, SVG Export Plug-In . SVG Version: 6.00 Build 0)  -->
<svg version="1.1" id="Layer_1" xmlns="http://www.w3.org/2000/svg" xmlns:xlink="http://www.w3.org/1999/xlink" x="0px" y="0px"
	 viewBox="0 0 65.6 46.2" style="enable-background:new 0 0 65.6 46.2;" xml:space="preserve">
<g>
	<path d="M4.3,28.3c-0.6,0.4-0.6,1.2,0,1.6l2.9,2c0.2,0.2,0.4,0.4,0.4,0.7c0,0.3,0,0.6-0.2,0.8l-1,1.2h6.2c-0.5-1.8-0.8-3.7-0.8-5.7
		C11.9,17.2,22,7.7,34,8.5c9.2,0.6,17,7.4,18.8,16.5c0.7,3.3,0.5,6.7-0.4,9.8h6.3l-1-1.2c-0.2-0.2-0.3-0.5-0.2-0.8
		c0-0.3,0.2-0.6,0.4-0.7l2.9-2c0.6-0.4,0.6-1.2,0-1.6l-2.9-2c-0.2-0.2-0.4-0.4-0.4-0.7c0-0.3,0-0.6,0.2-0.8l2.3-2.8
		c0.4-0.5,0.2-1.4-0.5-1.6l-3.4-1.1c-0.3-0.1-0.5-0.3-0.6-0.6c-0.1-0.3-0.1-0.6,0-0.9l1.4-3.3c0.3-0.6-0.2-1.4-0.9-1.4L52.4,13
		c-0.3,0-0.6-0.1-0.8-0.4c-0.2-0.2-0.3-0.5-0.3-0.8l0.4-3.6c0.1-0.7-0.6-1.3-1.2-1.1L47,8.1c-0.3,0.1-0.6,0-0.8-0.1
		c-0.3-0.2-0.4-0.4-0.5-0.7l-0.6-3.5C45,3,44.2,2.7,43.6,3l-3.1,1.8C40.3,5,40,5.1,39.7,5c-0.3-0.1-0.5-0.3-0.7-0.6l-1.6-3.2
		c-0.3-0.6-1.2-0.7-1.6-0.2l-2.4,2.6C33.2,3.8,32.9,4,32.6,4c-0.3,0-0.6-0.1-0.8-0.3L29.4,1c-0.5-0.5-1.3-0.4-1.6,0.2l-1.6,3.2
		C26,4.7,25.8,4.9,25.5,5c-0.3,0.1-0.6,0-0.9-0.1L21.6,3c-0.6-0.4-1.4,0-1.5,0.7l-0.6,3.5C19.4,7.5,19.2,7.8,19,8
		c-0.3,0.2-0.6,0.2-0.8,0.1l-3.5-0.9C14,7,13.4,7.6,13.4,8.3l0.4,3.6c0,0.3-0.1,0.6-0.3,0.8c-0.2,0.2-0.5,0.4-0.8,0.4l-3.6,0.1
		c-0.7,0-1.2,0.7-0.9,1.4l1.4,3.3c0.1,0.3,0.1,0.6,0,0.9c-0.1,0.3-0.4,0.5-0.6,0.6l-3.4,1.1c-0.7,0.2-0.9,1-0.5,1.6l2.2,2.8
		c0.2,0.2,0.3,0.5,0.2,0.8c0,0.3-0.2,0.6-0.4,0.7L4.3,28.3z"/>
	<rect x="0.6" y="42.3" width="64" height="3.3"/>
	<rect x="0.6" y="36.9" width="64" height="3.3"/>
	<path d="M32.6,10.6C22.4,10.6,14,18.9,14,29.1c0,2,0.3,3.9,0.9,5.7h35.3c0.6-1.8,0.9-3.7,0.9-5.7C51.1,18.9,42.8,10.6,32.6,10.6z
		 M32.6,33.3c-2.3,0-4.2-1.9-4.2-4.2c0-2.3,1.9-4.2,4.2-4.2c2.3,0,4.2,1.9,4.2,4.2C36.8,31.4,34.9,33.3,32.6,33.3z"/>
</g>
</svg>
